Coordinates
version=1
nRows=22
nColumns=34
inDegrees=no

Units are S.I. units (second, meters, Newtons, ...)
If the header above contains a line with 'inDegrees', this indicates whether rotational values are in degrees (yes) or radians (no).

endheader
time	pelvis_tilt	pelvis_list	pelvis_rotation	pelvis_tx	pelvis_ty	pelvis_tz	hip_flexion_r	hip_adduction_r	hip_rotation_r	knee_angle_r	ankle_angle_r	subtalar_angle_r	mtp_angle_r	hip_flexion_l	hip_adduction_l	hip_rotation_l	knee_angle_l	ankle_angle_l	subtalar_angle_l	mtp_angle_l	lumbar_extension	lumbar_bending	lumbar_rotation	arm_flex_r	arm_add_r	arm_rot_r	elbow_flex_r	pro_sup_r	arm_flex_l	arm_add_l	arm_rot_l	elbow_flex_l	pro_sup_l
3.36	-0.384367	0.0106017	0.0117747	-0.308447	0.789244	-0.601705	1.17972	-0.277305	-0.0541313	1.15984	0.502278	-0.0279019	-0.00241763	1.1807	-0.255641	-0.0633887	1.14444	0.473843	0.0213052	-0.00241763	-0.19359	0.00508752	-0.0406876	1.30835	-0.142532	0.237206	1.70419	2.09	1.28617	-0.115	0.22203	1.66601	2.07475
3.37	-0.392479	0.0120696	0.0117523	-0.310612	0.783849	-0.601921	1.20235	-0.280598	-0.0475129	1.17694	0.501026	-0.0431197	-0.00241763	1.20176	-0.256051	-0.0596552	1.1608	0.473241	0.00459678	-0.00241763	-0.196692	0.00627951	-0.0422586	1.32201	-0.138347	0.244509	1.72288	2.09	1.29401	-0.11672	0.222506	1.68785	2.07614
3.38	-0.399161	0.0126303	0.0122792	-0.31286	0.778544	-0.602253	1.22325	-0.284565	-0.0424233	1.19417	0.499906	-0.0567084	-0.00241763	1.22199	-0.256928	-0.0553685	1.17755	0.47278	-0.0114851	-0.00241763	-0.201421	0.00710438	-0.0423317	1.3348	-0.137949	0.249972	1.74285	2.09	1.30367	-0.115014	0.22507	1.70579	2.07924
3.39	-0.405328	0.0119819	0.0124642	-0.315125	0.773337	-0.602575	1.24276	-0.287681	-0.0384856	1.21053	0.499474	-0.0685679	-0.00241763	1.24209	-0.259158	-0.0501496	1.19447	0.472655	-0.0257113	-0.00241763	-0.206698	0.00830232	-0.0405903	1.34646	-0.13996	0.25382	1.76398	2.09	1.31389	-0.111253	0.22954	1.72133	2.08077
3.4	-0.41188	0.0112561	0.0117345	-0.317312	0.768246	-0.602722	1.26181	-0.289093	-0.0339434	1.22537	0.499658	-0.0805147	-0.00241763	1.26186	-0.262453	-0.045233	1.21051	0.472778	-0.0384832	-0.00241763	-0.211445	0.00981804	-0.0386144	1.3577	-0.140571	0.257423	1.78414	2.09	1.3233	-0.10996	0.234881	1.73778	2.07783
3.41	-0.418746	0.0112657	0.0110446	-0.319457	0.763222	-0.602818	1.28103	-0.290476	-0.0284298	1.23964	0.499899	-0.0928377	-0.00241763	1.28113	-0.26512	-0.0410065	1.22551	0.472845	-0.0516429	-0.00241763	-0.215758	0.0109353	-0.0382241	1.36921	-0.138957	0.261183	1.80198	2.09	1.33234	-0.111532	0.23967	1.75525	2.07542
3.42	-0.425833	0.0117593	0.0113608	-0.32159	0.758165	-0.603042	1.30074	-0.293649	-0.0230976	1.25438	0.500195	-0.104081	-0.00241763	1.30048	-0.266353	-0.0370078	1.2402	0.472411	-0.0657137	-0.00241763	-0.21945	0.011603	-0.0394964	1.38048	-0.136908	0.265236	1.81802	2.09	1.34112	-0.112995	0.24281	1.77176	2.07806
3.43	-0.432957	0.0123875	0.0120486	-0.323664	0.753093	-0.603313	1.32057	-0.297864	-0.0183351	1.26927	0.500989	-0.11371	-0.00241763	1.31981	-0.267378	-0.0333558	1.25478	0.471678	-0.0791268	-0.00241763	-0.222575	0.0121453	-0.0409343	1.39097	-0.135598	0.269752	1.83341	2.09	1.34944	-0.113967	0.245685	1.78696	2.08281
3.44	-0.439539	0.0131196	0.0120363	-0.325689	0.748135	-0.603486	1.33967	-0.301281	-0.0133302	1.28355	0.502308	-0.122871	-0.00241763	1.33811	-0.269376	-0.0301691	1.26892	0.471425	-0.0909756	-0.00241763	-0.226208	0.0124762	-0.0415933	1.40126	-0.134807	0.274448	1.84833	2.09	1.35801	-0.115879	0.250181	1.8019	2.0852
3.45	-0.445692	0.0140688	0.0116122	-0.327731	0.743283	-0.603616	1.35815	-0.303865	-0.00747867	1.29731	0.503774	-0.132897	-0.00241763	1.35554	-0.271531	-0.0269352	1.28259	0.471739	-0.102524	-0.00241763	-0.230418	0.0123785	-0.0422389	1.41176	-0.134064	0.279526	1.86216	2.09	1.36712	-0.118541	0.255508	1.81685	2.0852
3.46	-0.452348	0.0155385	0.0118078	-0.329781	0.738388	-0.603838	1.37726	-0.306941	-0.000762649	1.31102	0.504799	-0.144338	-0.00241763	1.37331	-0.272276	-0.0234355	1.29602	0.471296	-0.116035	-0.00241763	-0.233689	0.0118183	-0.043747	1.42188	-0.133427	0.28541	1.87483	2.09	1.37575	-0.120938	0.25977	1.83092	2.0863
3.47	-0.459509	0.0177368	0.0124539	-0.331771	0.733455	-0.604123	1.39715	-0.310561	0.00679183	1.32475	0.506022	-0.155236	-0.00241763	1.39118	-0.272017	-0.0202788	1.30912	0.471031	-0.12947	-0.00241763	-0.235915	0.0106917	-0.0452894	1.43136	-0.13313	0.291151	1.88678	2.09	1.38361	-0.122796	0.263286	1.8437	2.08754
3.48	-0.466337	0.0198826	0.0125646	-0.333684	0.728623	-0.604335	1.41663	-0.313332	0.0145431	1.33823	0.506931	-0.165664	-0.00241763	1.4084	-0.272508	-0.0174227	1.32182	0.470405	-0.142802	-0.00241763	-0.238502	0.00946249	-0.045455	1.44084	-0.133374	0.295744	1.8978	2.09	1.39144	-0.124002	0.267132	1.85547	2.08832
3.49	-0.472288	0.0211918	0.0119554	-0.335544	0.723957	-0.604393	1.43469	-0.314519	0.0218996	1.35135	0.507223	-0.176678	-0.00241763	1.4247	-0.274252	-0.0139757	1.33419	0.469718	-0.155255	-0.00241763	-0.242112	0.00857995	-0.0442033	1.45039	-0.134402	0.299826	1.90769	2.09	1.39954	-0.124337	0.271234	1.8664	2.089
3.5	-0.477738	0.0219201	0.0112559	-0.337359	0.719379	-0.604363	1.45173	-0.314725	0.029037	1.36407	0.507036	-0.188938	-0.00241763	1.44049	-0.276121	-0.00950725	1.34636	0.46919	-0.167028	-0.00241763	-0.24588	0.0079472	-0.0427607	1.45936	-0.135931	0.304388	1.91684	2.09	1.40743	-0.12421	0.27489	1.87634	2.09
3.51	-0.483166	0.0226613	0.010695	-0.339111	0.714831	-0.604341	1.46844	-0.314715	0.0362181	1.37633	0.506764	-0.201854	-0.00241763	1.45617	-0.27761	-0.0045692	1.35841	0.468509	-0.179077	-0.00241763	-0.249183	0.00732368	-0.0419108	1.46751	-0.137178	0.309088	1.92548	2.09	1.41493	-0.124702	0.278524	1.88581	2.09
3.52	-0.488471	0.0233749	0.0102024	-0.340774	0.710332	-0.604347	1.48477	-0.3148	0.0432588	1.38832	0.505936	-0.2151	-0.00241763	1.47171	-0.278966	0.00053639	1.37045	0.46719	-0.19182	-0.00241763	-0.252333	0.00685679	-0.0415425	1.47516	-0.137973	0.313483	1.93343	2.09	1.42209	-0.126185	0.282372	1.8953	2.09
3.53	-0.493387	0.0239508	0.0101181	-0.342338	0.705911	-0.604393	1.5005	-0.315157	0.0503589	1.40021	0.503448	-0.22897	-0.00241763	1.48675	-0.279549	0.00598215	1.38227	0.465384	-0.205509	-0.00241763	-0.255566	0.0066367	-0.0416042	1.4824	-0.138949	0.318161	1.94069	2.09	1.42861	-0.127701	0.285496	1.90455	2.09
3.54	-0.498021	0.0246213	0.0106871	-0.343816	0.701562	-0.604519	1.51582	-0.315832	0.0579943	1.41184	0.499502	-0.243218	-0.00241763	1.50123	-0.278851	0.0116112	1.39373	0.463403	-0.220353	-0.00241763	-0.25859	0.00646604	-0.0419447	1.48892	-0.140546	0.323276	1.94764	2.09	1.43408	-0.128249	0.287621	1.913	2.09
3.55	-0.502548	0.0253575	0.0113825	-0.345222	0.697261	-0.604692	1.53084	-0.316522	0.0658667	1.42317	0.495625	-0.257262	-0.00241763	1.51563	-0.278102	0.0173567	1.40531	0.460852	-0.235035	-0.00241763	-0.261273	0.00631967	-0.0418141	1.4947	-0.142543	0.328141	1.95461	2.09	1.43864	-0.127908	0.289624	1.92074	2.09
3.56	-0.50696	0.026014	0.0118723	-0.346567	0.692996	-0.60485	1.54557	-0.317332	0.0734105	1.43448	0.49275	-0.270414	-0.00241763	1.53008	-0.278011	0.0234181	1.41717	0.457347	-0.248353	-0.00241763	-0.263795	0.00625904	-0.0414409	1.50004	-0.144381	0.332988	1.96115	2.09	1.44263	-0.127668	0.291445	1.92842	2.09
3.57	-0.511485	0.0267778	0.0128523	-0.347855	0.688765	-0.60502	1.56033	-0.319131	0.0807392	1.44586	0.490582	-0.282054	-0.00241763	1.54435	-0.277186	0.0294179	1.42849	0.452814	-0.262194	-0.00241763	-0.265913	0.00615751	-0.0421839	1.50491	-0.145924	0.338642	1.96698	2.09	1.44612	-0.128184	0.292487	1.93639	2.09
